<svg width="16" height="16" viewBox="0 0 16 16" fill="none" xmlns="http://www.w3.org/2000/svg">
<path d="M9.57568 9.59643C9.3534 9.4095 9.09235 9.26526 8.80806 9.17221C8.52371 9.07916 8.22184 9.0392 7.92029 9.05476C7.6219 9.04158 7.32357 9.08261 7.04263 9.1756C6.76175 9.26859 6.50379 9.41164 6.28383 9.59643C6.10881 9.75474 6.00199 9.96536 5.98286 10.1897C5.92349 10.7099 5.92349 11.2344 5.98286 11.7546C6.03927 12.3909 6.15215 13.2335 6.30263 14.0933C6.36168 14.4909 6.44964 14.8844 6.56593 15.2713C6.67038 15.5057 6.85518 15.7029 7.0926 15.8331C7.33001 15.9633 7.60728 16.0196 7.88268 15.9935C8.15944 16.0202 8.43813 15.9642 8.67715 15.834C8.91624 15.7039 9.10272 15.5064 9.20884 15.2713C9.32513 14.8844 9.41316 14.4909 9.4722 14.0933C9.61329 13.2335 9.72616 12.3737 9.78257 11.7546C9.84194 11.2344 9.84194 10.7099 9.78257 10.1897C9.78959 9.97617 9.71657 9.76685 9.57568 9.59643ZM6.09568 6.68167C6.09568 7.02174 6.20604 7.35422 6.41274 7.63705C6.61938 7.91982 6.9132 8.14024 7.25692 8.2704C7.60065 8.40056 7.97882 8.43459 8.34373 8.36826C8.70864 8.30193 9.0438 8.1381 9.30684 7.89761C9.56995 7.65712 9.74909 7.35071 9.82166 7.01717C9.89423 6.68357 9.85701 6.3378 9.71464 6.02355C9.57227 5.70937 9.33112 5.44079 9.02178 5.25184C8.71251 5.06289 8.34882 4.96201 7.97676 4.96201C7.47785 4.96201 6.99942 5.14318 6.64662 5.46567C6.29388 5.78817 6.09568 6.22557 6.09568 6.68167ZM7.92029 0.000868844C6.04551 0.00870709 4.23404 0.621515 2.80524 1.73122C1.37638 2.84093 0.422092 4.37616 0.110628 6.06625C-0.200901 7.7564 0.150423 9.49275 1.10259 10.9692C2.05475 12.4456 3.54659 13.5673 5.31505 14.1363C5.33282 14.1407 5.3515 14.1409 5.36946 14.1371C5.38743 14.1334 5.40404 14.1256 5.41795 14.1146C5.43186 14.1035 5.44261 14.0896 5.44931 14.0739C5.45594 14.0582 5.45826 14.0413 5.45614 14.0245C5.40913 13.7752 5.37146 13.5258 5.33386 13.2851C5.33012 13.2417 5.31319 13.2002 5.28492 13.1653C5.25665 13.1303 5.2182 13.1033 5.17397 13.0873C3.7171 12.4961 2.52726 11.4645 1.8042 10.1659C1.08121 8.86729 0.869104 7.3807 1.20362 5.95598C1.53814 4.53126 2.3988 3.25523 3.64105 2.34219C4.8833 1.42915 6.43142 0.934808 8.02531 0.942171C9.61927 0.949594 11.1618 1.45825 12.3939 2.38275C13.6259 3.30724 14.4724 4.59117 14.7911 6.01892C15.1098 7.44667 14.8813 8.93119 14.1438 10.2231C13.4065 11.515 12.2053 12.5354 10.7419 13.1131C10.6976 13.1291 10.6592 13.1561 10.6309 13.191C10.6027 13.226 10.5857 13.2675 10.582 13.3109C10.582 13.5516 10.5068 13.801 10.4597 14.0503C10.4576 14.067 10.46 14.084 10.4666 14.0997C10.4732 14.1154 10.484 14.1293 10.4979 14.1404C10.5118 14.1514 10.5285 14.1591 10.5464 14.1629C10.5644 14.1667 10.583 14.1664 10.6008 14.1621C12.3964 13.6049 13.9152 12.4798 14.8837 10.9896C15.8522 9.49928 16.2068 7.74185 15.8835 6.03377C15.5601 4.32574 14.5802 2.77935 13.1203 1.67327C11.6603 0.567182 9.81625 -0.0259118 7.92029 0.000868844ZM7.77927 3.33693C8.65706 3.3054 9.52442 3.51995 10.2651 3.95188C11.0058 4.38376 11.5842 5.01236 11.923 5.75337C12.2617 6.49438 12.3445 7.31235 12.1604 8.0976C11.9762 8.88285 11.5337 9.59786 10.8924 10.1467C10.8586 10.1786 10.832 10.2163 10.8143 10.2576C10.7965 10.299 10.7879 10.3431 10.789 10.3875C10.8092 10.6738 10.8092 10.961 10.789 11.2473C10.7895 11.2651 10.7953 11.2825 10.8054 11.2977C10.8156 11.3129 10.8298 11.3255 10.8469 11.3341C10.864 11.3428 10.8832 11.3473 10.9027 11.3471C10.9222 11.347 10.9413 11.3422 10.9582 11.3333C11.9009 10.7469 12.6131 9.89963 12.9903 8.91599C13.3676 7.93234 13.3901 6.86409 13.0545 5.86786C12.7188 4.87169 12.0429 4.0001 11.1256 3.38094C10.2083 2.76177 9.09815 2.4277 7.95796 2.4277C6.81777 2.4277 5.70759 2.76177 4.79032 3.38094C3.87306 4.0001 3.197 4.87169 2.86139 5.86786C2.52578 6.86409 2.54825 7.93234 2.92553 8.91599C3.3028 9.89963 4.01504 10.7469 4.95768 11.3333C4.97377 11.3429 4.99258 11.3483 5.0119 11.3488C5.03115 11.3492 5.05021 11.3447 5.06682 11.3357C5.08343 11.3268 5.09702 11.3137 5.10597 11.2981C5.11492 11.2825 5.11898 11.2649 5.11756 11.2473C5.11756 10.9549 5.11756 10.6884 5.11756 10.3875C5.12239 10.3427 5.11557 10.2975 5.0976 10.2557C5.07957 10.2139 5.05098 10.1765 5.01408 10.1467C4.39598 9.61157 3.96475 8.92133 3.7746 8.16274C3.58445 7.4041 3.64389 6.61107 3.94543 5.88324C4.24705 5.15547 4.77725 4.52544 5.4694 4.07236C6.16161 3.61929 6.98487 3.36342 7.83568 3.33693H7.77927Z" fill="black"/>
</svg>
