<svg width="16" height="16" viewBox="0 0 16 16" fill="none" xmlns="http://www.w3.org/2000/svg">
<g clip-path="url(#clip0_301_467)">
<path d="M7 5.09106V7.51564V8.48474V10.9093H9.00004V8.48474V7.51564V5.09106H7Z" fill="#FAB908"/>
<path d="M1.00001 8.4546C1.5523 8.4546 2.00002 8.00688 2.00002 7.45459C2.00002 6.9023 1.5523 6.45459 1.00001 6.45459C0.44772 6.45459 0 6.9023 0 7.45459C0 8.00688 0.44772 8.4546 1.00001 8.4546Z" fill="#0066D9"/>
<path d="M1.00001 9.54554C1.5523 9.54554 2.00002 9.09783 2.00002 8.54554C2.00002 7.99325 1.5523 7.54553 1.00001 7.54553C0.44772 7.54553 0 7.99325 0 8.54554C0 9.09783 0.44772 9.54554 1.00001 9.54554Z" fill="#0066D9"/>
<path d="M2.00002 7.45471H0V8.54563H2.00002V7.45471Z" fill="#0066D9"/>
<path d="M15 9.54554C15.5523 9.54554 16 9.09783 16 8.54554C16 7.99325 15.5523 7.54553 15 7.54553C14.4477 7.54553 14 7.99325 14 8.54554C14 9.09783 14.4477 9.54554 15 9.54554Z" fill="#4285F4"/>
<path d="M15 8.4546C15.5523 8.4546 16 8.00688 16 7.45459C16 6.9023 15.5523 6.45459 15 6.45459C14.4477 6.45459 14 6.9023 14 7.45459C14 8.00688 14.4477 8.4546 15 8.4546Z" fill="#4285F4"/>
<path d="M14 8.54563H16V7.45471H14V8.54563Z" fill="#4285F4"/>
<path d="M4.45435 11.7273C5.00662 11.7273 5.45435 11.2796 5.45435 10.7273C5.45435 10.175 5.00662 9.72729 4.45435 9.72729C3.90206 9.72729 3.45435 10.175 3.45435 10.7273C3.45435 11.2796 3.90206 11.7273 4.45435 11.7273Z" fill="#EA4335"/>
<path d="M4.45435 12.8184C5.00662 12.8184 5.45435 12.3707 5.45435 11.8184C5.45435 11.2661 5.00662 10.8184 4.45435 10.8184C3.90206 10.8184 3.45435 11.2661 3.45435 11.8184C3.45435 12.3707 3.90206 12.8184 4.45435 12.8184Z" fill="#EA4335"/>
<path d="M5.45435 10.7275H3.45435V11.8185H5.45435V10.7275Z" fill="#EA4335"/>
<path d="M4.45435 5.18188C5.00662 5.18188 5.45435 4.73416 5.45435 4.18189C5.45435 3.6296 5.00662 3.18188 4.45435 3.18188C3.90206 3.18188 3.45435 3.6296 3.45435 4.18189C3.45435 4.73416 3.90206 5.18188 4.45435 5.18188Z" fill="#EA4335"/>
<path d="M4.45435 8.72718C5.00662 8.72718 5.45435 8.27947 5.45435 7.72718C5.45435 7.17489 5.00662 6.72717 4.45435 6.72717C3.90206 6.72717 3.45435 7.17489 3.45435 7.72718C3.45435 8.27947 3.90206 8.72718 4.45435 8.72718Z" fill="#EA4335"/>
<path d="M5.45435 4.18164H3.45435V7.74986H5.45435V4.18164Z" fill="#EA4335"/>
<path d="M11.5457 6.27284C12.0979 6.27284 12.5457 5.82513 12.5457 5.27284C12.5457 4.72055 12.0979 4.27283 11.5457 4.27283C10.9934 4.27283 10.5457 4.72055 10.5457 5.27284C10.5457 5.82513 10.9934 6.27284 11.5457 6.27284Z" fill="#34A853"/>
<path d="M11.5457 5.18188C12.0979 5.18188 12.5457 4.73416 12.5457 4.18189C12.5457 3.6296 12.0979 3.18188 11.5457 3.18188C10.9934 3.18188 10.5457 3.6296 10.5457 4.18189C10.5457 4.73416 10.9934 5.18188 11.5457 5.18188Z" fill="#34A853"/>
<path d="M10.5454 5.27267H12.5455V4.18176H10.5454V5.27267Z" fill="#34A853"/>
<path d="M8 3.09107C8.55232 3.09107 9.00004 2.64336 9.00004 2.09107C9.00004 1.53878 8.55232 1.09106 8 1.09106C7.44773 1.09106 7 1.53878 7 2.09107C7 2.64336 7.44773 3.09107 8 3.09107Z" fill="#FAB908"/>
<path d="M7.99994 2.00001C8.55226 2.00001 8.99998 1.55229 8.99998 1C8.99998 0.447718 8.55226 0 7.99994 0C7.44767 0 6.99994 0.447718 6.99994 1C6.99994 1.55229 7.44767 2.00001 7.99994 2.00001Z" fill="#FAB908"/>
<path d="M7 2.09092H9.00004V1H7V2.09092Z" fill="#FAB908"/>
<path d="M8 16C8.55232 16 9.00004 15.5523 9.00004 15C9.00004 14.4477 8.55232 14 8 14C7.44773 14 7 14.4477 7 15C7 15.5523 7.44773 16 8 16Z" fill="#FAB908"/>
<path d="M8 14.9093C8.55232 14.9093 9.00004 14.4616 9.00004 13.9093C9.00004 13.357 8.55232 12.9093 8 12.9093C7.44773 12.9093 7 13.357 7 13.9093C7 14.4616 7.44773 14.9093 8 14.9093Z" fill="#FAB908"/>
<path d="M7 15.0002H9.00004V13.9093H7V15.0002Z" fill="#FAB908"/>
<path d="M11.5457 12.8184C12.0979 12.8184 12.5457 12.3707 12.5457 11.8184C12.5457 11.2661 12.0979 10.8184 11.5457 10.8184C10.9934 10.8184 10.5457 11.2661 10.5457 11.8184C10.5457 12.3707 10.9934 12.8184 11.5457 12.8184Z" fill="#34A853"/>
<path d="M11.5457 9.27284C12.0979 9.27284 12.5457 8.82512 12.5457 8.27283C12.5457 7.72054 12.0979 7.27283 11.5457 7.27283C10.9934 7.27283 10.5457 7.72054 10.5457 8.27283C10.5457 8.82512 10.9934 9.27284 11.5457 9.27284Z" fill="#34A853"/>
<path d="M10.5454 11.8182H12.5455V8.27271H10.5454V11.8182Z" fill="#34A853"/>
<path d="M8 6.09097C8.55232 6.09097 9.00004 5.64322 9.00004 5.09097C9.00004 4.53868 8.55232 4.09094 8 4.09094C7.44773 4.09094 7 4.53868 7 5.09097C7 5.64322 7.44773 6.09097 8 6.09097Z" fill="#FAB908"/>
<path d="M8 11.9093C8.55232 11.9093 9.00004 11.4616 9.00004 10.9093C9.00004 10.357 8.55232 9.9093 8 9.9093C7.44773 9.9093 7 10.357 7 10.9093C7 11.4616 7.44773 11.9093 8 11.9093Z" fill="#FAB908"/>
</g>
<defs>
<clipPath id="clip0_301_467">
<rect width="16" height="16" fill="white"/>
</clipPath>
</defs>
</svg>
