<svg width="275" height="275" viewBox="0 0 275 275" fill="none" xmlns="http://www.w3.org/2000/svg">
<path d="M171.399 145.861C170.899 142.26 170.671 138.899 169.934 135.389C168.89 130.415 165.333 125.943 162.87 121.555C158.052 112.973 152.999 103.274 143.86 98.737C135.211 94.4433 128.009 96.13 119.381 99.1895C114.087 101.066 110.497 111.472 108.964 116.255C106.454 124.087 104.967 130.613 106.36 138.912C107.424 145.252 109.612 154.804 113.977 159.823C116.026 162.179 117.18 164.108 119.804 165.899C121.556 167.095 123.562 168.257 125.11 169.713C127.991 172.423 132.393 172.872 135.364 175.822C137.978 178.417 141.756 179.367 142.655 183.385C143.227 185.938 144.544 191.05 147.961 191.239C156.438 191.706 166.992 188.388 173.71 183.385C176.659 181.189 176.999 176.348 174.621 173.462C171.803 170.042 171.723 162.973 171.399 158.789C171.119 155.177 169.207 151.246 170.943 147.606C173.711 141.805 174.372 135.079 173.45 128.666C172.121 119.43 173.402 111.372 167.004 103.682C164.551 100.734 161.563 97.9561 158.834 95.2464C155.42 91.8572 152.103 88.3509 146.92 88.2652C139.082 88.1355 129.519 88.1666 123.482 93.9536C120.893 96.4361 117.233 99.3849 116.028 102.842C113.849 109.09 114.733 115.113 115.442 121.588C116.793 133.931 116.699 149.081 126.282 158.595C128.955 161.249 130.405 157.134 130.839 155.169C131.553 151.937 130.297 148.408 129.927 145.214C129.417 140.806 128.249 136.704 126.868 132.48C126.113 130.172 122.67 114.726 117.818 118.259C112.063 122.449 113.386 138.095 114.954 143.469C116.611 149.15 121.027 159.987 128.983 157.948C136.432 156.04 138.778 147.215 134.42 141.497C132.369 138.807 124.952 132.201 124.068 139.332C123.17 146.573 128.985 155.387 134.159 159.791C137.463 162.602 144.386 164.951 146.073 158.918C147.066 155.368 140.552 149.965 137.284 150.644C129.599 152.241 138.466 167.226 140.279 170.133C142.427 173.579 155.073 181.031 152.519 172.04C151.828 169.609 145.737 162.67 142.72 164.542C137.363 167.866 148.819 179.714 151.672 180.961C155.942 182.826 155.697 178.339 153.821 175.983C152.186 173.931 148.62 171.295 150.045 176.145C151.023 179.475 154.161 187.357 158.834 186.455C163.775 185.501 161.036 173.725 160.006 171.071C159.143 168.848 157.355 164.293 154.993 163.12C152.9 162.081 154.563 167.202 154.765 167.709C156.037 170.916 159.308 178.763 163.651 178.763C168.943 178.763 164.214 166.567 163.521 164.897C162.771 163.088 162.016 159.922 160.006 159.015C158.345 158.266 159.81 164.28 160.006 164.897C160.502 166.466 163.925 180.661 167.883 178.892C172.707 176.737 169.594 166.985 168.73 163.475C167.845 159.884 166.655 156.399 165.67 152.842C165.117 150.846 164.915 151.447 165.409 153.165C165.663 154.048 166.697 155.952 167.883 155.363C169.992 154.316 169.733 149.769 169.934 147.897C170.712 140.633 170.039 132.901 169.511 125.628C169.158 120.766 168.713 117.007 166.158 112.99C162.357 107.015 161.667 101.256 155.123 97.121C150.254 94.0446 144.543 90.0508 138.879 93.2425C131.552 97.3716 126.072 106.489 122.896 113.992C121.645 116.949 120.366 126.478 126.119 121.846C130.012 118.712 132.49 114.71 134.517 110.211C136.608 105.571 139.342 100.585 138.814 95.3434C137.776 85.033 126.879 101.936 125.826 104.232C123.818 108.608 116.332 126.227 123.938 128.925C126.709 129.907 129.698 126.833 131.36 124.981C135.515 120.352 138.885 114.284 139.628 108.045C140.054 104.471 139.422 99.4228 135.787 97.5089C131.031 95.0047 125.746 104.183 124.133 107.205C120.829 113.398 118.719 120.103 118.176 127.115C117.864 131.15 117.337 137.471 121.594 139.849C124.974 141.736 129.337 136.769 131.164 134.613C135.772 129.177 138.681 123.007 141.125 116.384C142.949 111.442 143.815 105.588 142.395 100.418C141.165 95.9398 136.425 102.527 135.624 103.779C130.622 111.601 128.437 121.424 126.998 130.476C126.233 135.286 124.738 143.048 128.072 147.25C135.647 156.797 145.965 130.877 146.985 127.244C148.72 121.062 149.644 114.19 148.808 107.787C148.003 101.625 144.101 109.947 143.339 111.956C140.809 118.623 139.96 126.201 139.433 133.255C139.06 138.236 138.104 145.268 140.019 150.127C141.783 154.604 145.48 152.239 147.375 149.416C151.472 143.314 152.564 135.875 153.235 128.731C153.802 122.688 153.776 116.267 152.909 110.243C151.906 103.27 149.379 117.65 149.198 118.776C147.751 127.796 146.827 137.049 146.789 146.184C146.77 150.985 145.136 164.205 150.565 167.257C153.611 168.969 156.306 164.746 157.564 162.57C161.636 155.529 161.643 145.906 161.08 138.071C160.68 132.517 159.987 126.992 159.127 121.491C158.749 119.074 158.535 116.234 157.336 114.025C155.681 110.973 155.078 125.155 155.09 125.951C155.132 128.642 157.523 163.529 161.894 161.439C164.203 160.335 164.442 153.885 164.628 151.904C165.506 142.566 163.99 132.773 162.317 123.592C162.192 122.91 160.413 115.938 160.396 115.996C158.93 121.009 159.68 127.352 159.68 132.48C159.68 138.384 159.378 144.415 160.852 150.191C161.449 152.533 162.743 155.273 163.912 151.614C167.556 140.202 164.251 126.107 161.145 114.8C160.324 111.81 160.199 113.974 160.396 115.673C160.915 120.141 161.551 125.114 163.196 129.312C163.471 130.015 165.477 134.448 166.939 132.674C168.351 130.96 166.837 126.043 166.353 124.27C164.641 117.991 161.396 112.173 157.955 106.688C156.098 103.728 153.958 100.173 150.338 99.1249C141.118 96.455 142.103 124.007 142.232 127.696C142.446 133.788 143.19 139.795 144.999 145.634C145.275 146.523 147.04 152.107 148.515 149.545C150.677 145.788 147.042 138.545 145.357 135.259C143.82 132.262 138.415 121.671 134.224 121.814C129.764 121.967 129.807 130.531 129.927 133.255C130.27 140.981 132.027 148.607 135.526 155.557C137.222 158.923 140.196 162.635 144.088 163.508C145.69 163.867 149.266 163.414 148.71 160.987C148.155 158.562 144.909 157.221 143.079 156.009C139.434 153.597 135.994 151.001 132.076 149.028C125.397 145.664 131.816 156.912 133.085 159.338C135.138 163.264 137.925 168.228 142.33 169.939C144.192 170.663 144.705 169.365 143.176 168.226C140.204 166.013 137.258 163.769 134.224 161.633C133.018 160.784 128.684 156.219 126.998 156.591C126.904 156.612 134.564 166.575 135.95 167.645C140.678 171.296 126.346 160.527 121.399 157.173C117.545 154.559 119.691 155.897 121.92 158.078C123.995 160.108 125.897 162.273 127.909 164.348C129.576 166.066 131.84 165.144 134.224 165.996C137.607 167.205 141.122 171.224 145.032 168.42C148.806 165.714 148.464 164.849 150.305 169.81C152.518 175.773 153.61 182.088 154.993 188.265C155.464 190.371 156.158 187.832 156.49 186.972C157.373 184.683 158.46 182.073 158.508 179.603C158.595 175.141 154.944 173.839 152.095 177.567C151.252 178.671 147.724 186.227 152.063 184.257C154.238 183.27 155.072 181.859 155.579 179.539C157.118 172.489 157.099 164.772 156.49 157.625C156.329 155.739 156.102 146.548 153.202 145.828C149.822 144.989 148.171 158.323 147.961 160.276C147.39 165.594 146.35 170.988 147.375 176.307C148.298 181.089 150.541 179.452 151.933 175.725C154.138 169.818 154.311 162.828 154.049 156.623C153.866 152.316 153.347 148.149 152.356 143.954C152.035 142.597 151.724 139.328 150.273 138.427C147.802 136.894 147.432 147.22 147.375 148.155C147.196 151.097 146.291 159.878 146.822 156.979C148.89 145.687 145.131 132.025 139.042 122.46C131.539 110.675 123.417 130.651 123.417 137.328C123.417 138.486 123.548 142.565 125.696 141.53C129.497 139.696 128.987 132.66 128.951 129.377C128.914 126.047 128.293 116.287 124.524 114.38C119.974 112.079 119.878 128.294 119.836 129.571" stroke="#FFD700" stroke-width="7.02381" stroke-linecap="round" stroke-linejoin="round"/>
<path d="M150.891 200.547C153.987 199.947 157.215 199.152 160.298 198.769C163.046 198.428 166.823 195.204 169.283 193.889C171.542 192.681 174.369 192.418 176.542 190.98C177.396 190.414 180.326 186.437 180.188 188.911C180.102 190.437 177.899 193.053 177.225 194.503C176.021 197.093 173.288 199.62 171.073 201.42C168.672 203.37 166.305 204.982 163.521 206.365C160.872 207.68 157.51 208.431 155.253 210.437C153.652 211.859 156.344 211.912 157.661 212.15C160.157 212.601 162.696 212.123 164.725 210.728C167.139 209.069 170.498 207.417 173.286 206.494C175.774 205.671 177.377 204.108 179.602 203.003C180.472 202.571 183.626 201.888 181.652 203.456C180.707 204.207 180.709 206.234 180.188 207.27C179.529 208.577 178.012 209.826 176.9 210.76C174.468 212.803 171.825 215.16 169.055 216.707C167.872 217.368 172.984 217.886 173.156 218" stroke="#4D4D4D" stroke-width="7.02381" stroke-linecap="round" stroke-linejoin="round"/>
<path d="M147.375 186.003C147.375 180.035 147.961 174.239 147.961 168.291C147.961 160.938 145.672 153.684 143.729 146.636C141.713 139.322 139.175 132.031 134.484 125.951C131.699 122.34 128.782 116.19 123.482 116.19C120.342 116.19 119.836 119.019 119.836 121.426C119.836 125.986 122.389 129.945 126.151 132.48C130.301 135.275 135.614 135.928 140.214 137.715C144.04 139.202 147.932 140.982 150.761 137.134C156.331 129.554 157.689 120.524 157.336 111.407C157.301 110.508 155.918 107.449 154.862 108.498C152.813 110.532 151.539 114.305 151.477 117.16C151.197 129.925 152.918 143.793 158.052 155.556C159.202 158.191 160.367 160.826 161.763 163.346C162.844 165.296 163.198 167.603 164.498 169.39C165.236 170.404 170.764 176.824 168.469 173.785" stroke="#4D4D4D" stroke-width="7.02381" stroke-linecap="round" stroke-linejoin="round"/>
<path d="M98.7424 194.729C102.083 191.412 104.874 187.792 107.662 183.999C109.458 181.555 108.817 182.268 108.117 180.185" stroke="#FFD700" stroke-width="7.02381" stroke-linecap="round" stroke-linejoin="round"/>
<path d="M71.7891 147.024C74.9507 145.935 79.14 144.403 81.8802 142.499C82.2842 142.218 81.2789 144.925 80.5781 143.533" stroke="#FFD700" stroke-width="7.02381" stroke-linecap="round" stroke-linejoin="round"/>
<path d="M63 92.3374C67.0319 95.0334 70.9837 97.5733 76.0208 97.5733C77.1398 97.5733 80.8063 97.4447 79.9922 95.828" stroke="#FFD700" stroke-width="7.02381" stroke-linecap="round" stroke-linejoin="round"/>
<path d="M107.531 60.9219C108.383 64.867 109.888 67.8221 112.186 71.1029C112.58 71.6644 115.407 74.6874 113.977 72.5573" stroke="#FFD700" stroke-width="7.02381" stroke-linecap="round" stroke-linejoin="round"/>
<path d="M160.266 67.3211C162.834 65.604 165.729 63.755 167.883 61.5034C168.504 60.8538 170.813 57.7776 170.813 58.0128" stroke="#FFD700" stroke-width="7.02381" stroke-linecap="round" stroke-linejoin="round"/>
<path d="M195.422 95.828C201.293 93.9245 213 90.0103 213 90.0103" stroke="#FFD700" stroke-width="7.02381" stroke-linecap="round" stroke-linejoin="round"/>
<path d="M196.008 143.533C199.511 146.909 202.85 146.435 207.141 148.058C209.035 148.775 209.749 148.124 207.141 147.606" stroke="#FFD700" stroke-width="7.02381" stroke-linecap="round" stroke-linejoin="round"/>
</svg>
