<svg width="18" height="18" viewBox="0 0 18 18" fill="none" xmlns="http://www.w3.org/2000/svg">
<mask id="path-1-outside-1_301_395" maskUnits="userSpaceOnUse" x="0" y="0" width="18" height="18" fill="black">
<rect fill="white" width="18" height="18"/>
<path d="M9.00003 1C7.41775 1 5.87102 1.46919 4.55542 2.34822C3.23986 3.2273 2.21449 4.47674 1.60895 5.93852C1.00346 7.40035 0.845035 9.00889 1.15374 10.5607C1.46239 12.1126 2.22431 13.538 3.34314 14.6569C4.46197 15.7757 5.88745 16.5376 7.4393 16.8463C8.99114 17.155 10.5997 16.9966 12.0615 16.391C13.5233 15.7855 14.7727 14.7601 15.6518 13.4446C16.5308 12.129 17 10.5823 17 9.00001C17 6.87825 16.1572 4.84344 14.6569 3.34316C13.1566 1.84284 11.1218 1 9.00003 1ZM12.6712 12.5371C12.6372 12.5936 12.5922 12.6428 12.539 12.6819C12.4858 12.7209 12.4253 12.7489 12.3611 12.7643C12.297 12.7798 12.2304 12.7823 12.1652 12.7718C12.1001 12.7613 12.0377 12.738 11.9816 12.7031C10.1046 11.5539 7.74223 11.2985 4.95851 11.9306C4.89517 11.9457 4.8295 11.9481 4.76523 11.9376C4.701 11.9271 4.63943 11.904 4.58423 11.8695C4.52899 11.8351 4.48114 11.79 4.44344 11.7369C4.40575 11.6838 4.37903 11.6238 4.36475 11.5603C4.34953 11.4965 4.34711 11.4304 4.35748 11.3658C4.36791 11.3011 4.39095 11.2391 4.42534 11.1833C4.45974 11.1276 4.50483 11.0792 4.55793 11.0409C4.61108 11.0026 4.67126 10.9751 4.73502 10.9601C7.78053 10.2641 10.3982 10.5642 12.5052 11.854C12.6176 11.9227 12.6982 12.0332 12.7293 12.1612C12.7604 12.2893 12.7396 12.4245 12.6712 12.5371ZM13.6481 10.3599C13.5588 10.4972 13.4203 10.5949 13.2611 10.6329C13.1019 10.6709 12.9341 10.6463 12.7925 10.5642C10.3649 9.21005 7.49906 8.87481 4.82443 9.63206C4.74121 9.67849 4.64864 9.70567 4.55356 9.71163C4.45843 9.7176 4.36321 9.7022 4.27483 9.66656C4.18645 9.63093 4.10719 9.576 4.04283 9.50572C3.97846 9.43549 3.93062 9.35169 3.90283 9.26057C3.87505 9.1694 3.86802 9.0732 3.88226 8.97898C3.8965 8.88476 3.93164 8.79495 3.98511 8.71608C4.03859 8.63721 4.10905 8.57134 4.19129 8.52322C4.27357 8.47515 4.36554 8.44604 4.46048 8.43815C5.95336 8.0084 7.51707 7.88132 9.05974 8.06446C10.6024 8.24755 12.093 8.73711 13.4438 9.50441C13.581 9.59361 13.6787 9.73215 13.7167 9.89135C13.7547 10.0506 13.7302 10.2183 13.6481 10.3599ZM13.731 8.09338C11.1772 6.56103 6.90585 6.42057 4.44135 7.16759C4.2517 7.22519 4.04692 7.20505 3.87212 7.11163C3.69731 7.01825 3.56676 6.85924 3.50919 6.66958C3.45162 6.47996 3.47173 6.27518 3.56514 6.10035C3.6585 5.92556 3.81752 5.795 4.00718 5.73745C6.83562 4.88189 11.5283 5.04789 14.4972 6.80366C14.6498 6.9129 14.7558 7.07557 14.7939 7.25937C14.8321 7.44312 14.7996 7.63452 14.703 7.7955C14.6065 7.95643 14.4528 8.07511 14.2728 8.12793C14.0927 8.18079 13.8992 8.16389 13.731 8.08061V8.09338Z"/>
</mask>
<path d="M9.00003 1C7.41775 1 5.87102 1.46919 4.55542 2.34822C3.23986 3.2273 2.21449 4.47674 1.60895 5.93852C1.00346 7.40035 0.845035 9.00889 1.15374 10.5607C1.46239 12.1126 2.22431 13.538 3.34314 14.6569C4.46197 15.7757 5.88745 16.5376 7.4393 16.8463C8.99114 17.155 10.5997 16.9966 12.0615 16.391C13.5233 15.7855 14.7727 14.7601 15.6518 13.4446C16.5308 12.129 17 10.5823 17 9.00001C17 6.87825 16.1572 4.84344 14.6569 3.34316C13.1566 1.84284 11.1218 1 9.00003 1ZM12.6712 12.5371C12.6372 12.5936 12.5922 12.6428 12.539 12.6819C12.4858 12.7209 12.4253 12.7489 12.3611 12.7643C12.297 12.7798 12.2304 12.7823 12.1652 12.7718C12.1001 12.7613 12.0377 12.738 11.9816 12.7031C10.1046 11.5539 7.74223 11.2985 4.95851 11.9306C4.89517 11.9457 4.8295 11.9481 4.76523 11.9376C4.701 11.9271 4.63943 11.904 4.58423 11.8695C4.52899 11.8351 4.48114 11.79 4.44344 11.7369C4.40575 11.6838 4.37903 11.6238 4.36475 11.5603C4.34953 11.4965 4.34711 11.4304 4.35748 11.3658C4.36791 11.3011 4.39095 11.2391 4.42534 11.1833C4.45974 11.1276 4.50483 11.0792 4.55793 11.0409C4.61108 11.0026 4.67126 10.9751 4.73502 10.9601C7.78053 10.2641 10.3982 10.5642 12.5052 11.854C12.6176 11.9227 12.6982 12.0332 12.7293 12.1612C12.7604 12.2893 12.7396 12.4245 12.6712 12.5371ZM13.6481 10.3599C13.5588 10.4972 13.4203 10.5949 13.2611 10.6329C13.1019 10.6709 12.9341 10.6463 12.7925 10.5642C10.3649 9.21005 7.49906 8.87481 4.82443 9.63206C4.74121 9.67849 4.64864 9.70567 4.55356 9.71163C4.45843 9.7176 4.36321 9.7022 4.27483 9.66656C4.18645 9.63093 4.10719 9.576 4.04283 9.50572C3.97846 9.43549 3.93062 9.35169 3.90283 9.26057C3.87505 9.1694 3.86802 9.0732 3.88226 8.97898C3.8965 8.88476 3.93164 8.79495 3.98511 8.71608C4.03859 8.63721 4.10905 8.57134 4.19129 8.52322C4.27357 8.47515 4.36554 8.44604 4.46048 8.43815C5.95336 8.0084 7.51707 7.88132 9.05974 8.06446C10.6024 8.24755 12.093 8.73711 13.4438 9.50441C13.581 9.59361 13.6787 9.73215 13.7167 9.89135C13.7547 10.0506 13.7302 10.2183 13.6481 10.3599ZM13.731 8.09338C11.1772 6.56103 6.90585 6.42057 4.44135 7.16759C4.2517 7.22519 4.04692 7.20505 3.87212 7.11163C3.69731 7.01825 3.56676 6.85924 3.50919 6.66958C3.45162 6.47996 3.47173 6.27518 3.56514 6.10035C3.6585 5.92556 3.81752 5.795 4.00718 5.73745C6.83562 4.88189 11.5283 5.04789 14.4972 6.80366C14.6498 6.9129 14.7558 7.07557 14.7939 7.25937C14.8321 7.44312 14.7996 7.63452 14.703 7.7955C14.6065 7.95643 14.4528 8.07511 14.2728 8.12793C14.0927 8.18079 13.8992 8.16389 13.731 8.08061V8.09338Z" fill="#1ED760"/>
<path d="M4.55542 2.34822L3.99986 1.51674L3.99983 1.51676L4.55542 2.34822ZM1.60895 5.93852L0.68508 5.55581L0.685065 5.55585L1.60895 5.93852ZM1.15374 10.5607L2.13453 10.3656L2.13452 10.3656L1.15374 10.5607ZM3.34314 14.6569L2.63603 15.364L2.63604 15.364L3.34314 14.6569ZM12.0615 16.391L11.6788 15.4672L11.6788 15.4672L12.0615 16.391ZM14.6569 3.34316L13.9498 4.05027L14.6569 3.34316ZM12.6712 12.5371L11.8163 12.0184L11.8144 12.0214L12.6712 12.5371ZM12.539 12.6819L13.1301 13.4885L13.1304 13.4882L12.539 12.6819ZM12.3611 12.7643L12.1272 11.7921L12.127 11.7921L12.3611 12.7643ZM11.9816 12.7031L12.5096 11.8538L12.5038 11.8503L11.9816 12.7031ZM4.95851 11.9306L4.73707 10.9553L4.72637 10.9579L4.95851 11.9306ZM4.76523 11.9376L4.9267 10.9507L4.92611 10.9506L4.76523 11.9376ZM4.58423 11.8695L4.05499 12.718L4.05518 12.7181L4.58423 11.8695ZM4.36475 11.5603L5.34045 11.3408L5.33738 11.3279L4.36475 11.5603ZM4.35748 11.3658L3.37022 11.2067L3.37011 11.2074L4.35748 11.3658ZM4.42534 11.1833L3.57437 10.6581L3.57417 10.6584L4.42534 11.1833ZM4.55793 11.0409L3.97322 10.2296L3.97288 10.2299L4.55793 11.0409ZM4.73502 10.9601L4.51225 9.98519L4.50568 9.98674L4.73502 10.9601ZM12.5052 11.854L11.9831 12.7069L11.9835 12.7071L12.5052 11.854ZM12.7293 12.1612L11.7576 12.3972L11.7576 12.3975L12.7293 12.1612ZM13.6481 10.3599L14.4865 10.9049L14.5004 10.8835L14.5132 10.8615L13.6481 10.3599ZM12.7925 10.5642L13.2941 9.69912L13.2869 9.69496L13.2797 9.69092L12.7925 10.5642ZM4.82443 9.63206L4.55201 8.66988L4.43939 8.70176L4.33718 8.75879L4.82443 9.63206ZM4.55356 9.71163L4.61611 10.7097L4.61614 10.7097L4.55356 9.71163ZM4.04283 9.50572L4.78028 8.83033L4.78006 8.83008L4.04283 9.50572ZM3.90283 9.26057L2.94627 9.55208L2.94631 9.55222L3.90283 9.26057ZM3.88226 8.97898L2.89349 8.82953L3.88226 8.97898ZM4.19129 8.52322L3.68683 7.65979L3.68625 7.66012L4.19129 8.52322ZM4.46048 8.43815L4.54327 9.43472L4.64195 9.42652L4.73711 9.39913L4.46048 8.43815ZM9.05974 8.06446L8.94185 9.05749L8.94188 9.05749L9.05974 8.06446ZM13.4438 9.50441L13.9887 8.66593L13.9636 8.64965L13.9377 8.6349L13.4438 9.50441ZM13.7167 9.89135L14.6894 9.6591L14.6894 9.65903L13.7167 9.89135ZM13.731 8.09338L13.2165 8.95087L14.731 9.85958V8.09338H13.731ZM4.44135 7.16759L4.15127 6.21058L4.15073 6.21075L4.44135 7.16759ZM3.87212 7.11163L4.34347 6.22968L4.34328 6.22958L3.87212 7.11163ZM3.50919 6.66958L4.46608 6.37912L4.46606 6.37906L3.50919 6.66958ZM3.56514 6.10035L4.44714 6.57158L4.44719 6.57149L3.56514 6.10035ZM4.00718 5.73745L3.71765 4.78028L3.71677 4.78054L4.00718 5.73745ZM14.4972 6.80366L15.0793 5.99053L15.0438 5.96512L15.0063 5.94291L14.4972 6.80366ZM14.7939 7.25937L15.7731 7.05625L15.7731 7.05607L14.7939 7.25937ZM14.703 7.7955L15.5605 8.31004L15.5606 8.30993L14.703 7.7955ZM14.2728 8.12793L13.9913 7.16835L13.9912 7.1684L14.2728 8.12793ZM13.731 8.08061L14.1748 7.18445L12.731 6.46958V8.08061H13.731ZM9.00003 0C7.21997 0 5.47991 0.527832 3.99986 1.51674L5.11098 3.1797C6.26214 2.41054 7.61553 2 9.00003 2V0ZM3.99983 1.51676C2.51984 2.50572 1.3663 3.91133 0.68508 5.55581L2.53282 6.32123C3.06267 5.04215 3.95989 3.94887 5.11101 3.17967L3.99983 1.51676ZM0.685065 5.55585C0.003892 7.20039 -0.174338 9.01 0.172955 10.7558L2.13452 10.3656C1.86441 9.00777 2.00302 7.6003 2.53283 6.32119L0.685065 5.55585ZM0.172948 10.7558C0.520188 12.5016 1.37735 14.1053 2.63603 15.364L4.05025 13.9498C3.07127 12.9708 2.4046 11.7235 2.13453 10.3656L0.172948 10.7558ZM2.63604 15.364C3.89472 16.6226 5.49838 17.4798 7.24421 17.8271L7.63439 15.8655C6.27653 15.5954 5.02922 14.9287 4.05023 13.9497L2.63604 15.364ZM7.24421 17.8271C8.99002 18.1743 10.7996 17.9961 12.4442 17.3149L11.6788 15.4672C10.3997 15.997 8.99226 16.1356 7.63439 15.8655L7.24421 17.8271ZM12.4441 17.3149C14.0887 16.6337 15.4943 15.4802 16.4832 14.0001L14.8203 12.889C14.0511 14.0401 12.9579 14.9373 11.6788 15.4672L12.4441 17.3149ZM16.4832 14.0001C17.4722 12.5201 18 10.78 18 9.00001H16C16 10.3845 15.5895 11.7379 14.8203 12.889L16.4832 14.0001ZM18 9.00001C18 6.61304 17.0518 4.32387 15.364 2.63606L13.9498 4.05027C15.2625 5.36301 16 7.14347 16 9.00001H18ZM15.364 2.63606C13.6761 0.948195 11.387 0 9.00003 0V2C10.8565 2 12.637 2.73748 13.9498 4.05027L15.364 2.63606ZM11.8144 12.0214C11.8489 11.9642 11.8942 11.9146 11.9476 11.8755L13.1304 13.4882C13.2902 13.3711 13.4254 13.2231 13.528 13.0528L11.8144 12.0214ZM11.948 11.8752C12.0017 11.8359 12.0626 11.8076 12.1272 11.7921L12.5951 13.7366C12.788 13.6902 12.9699 13.6059 13.1301 13.4885L11.948 11.8752ZM12.127 11.7921C12.1918 11.7765 12.259 11.774 12.3246 11.7846L12.0059 13.759C12.2018 13.7907 12.4022 13.7831 12.5953 13.7365L12.127 11.7921ZM12.3246 11.7846C12.39 11.7951 12.4529 11.8186 12.5096 11.8539L11.4537 13.5524C11.6225 13.6573 11.8102 13.7275 12.0059 13.759L12.3246 11.7846ZM12.5038 11.8503C10.3425 10.527 7.6944 10.2839 4.73708 10.9554L5.17994 12.9057C7.79006 12.3131 9.86666 12.5808 11.4595 13.556L12.5038 11.8503ZM4.72637 10.9579C4.79173 10.9423 4.85986 10.9398 4.9267 10.9507L4.60376 12.9244C4.79914 12.9564 4.9986 12.9491 5.19065 12.9033L4.72637 10.9579ZM4.92611 10.9506C4.99253 10.9614 5.0561 10.9853 5.11328 11.0209L4.05518 12.7181C4.22276 12.8226 4.40948 12.8928 4.60435 12.9245L4.92611 10.9506ZM5.11348 11.0211C5.1705 11.0566 5.21992 11.1032 5.25883 11.158L3.62805 12.3158C3.74237 12.4768 3.88748 12.6135 4.05499 12.718L5.11348 11.0211ZM5.25883 11.158C5.29812 11.2133 5.32569 11.2756 5.34037 11.3408L3.38912 11.7797C3.43238 11.972 3.51338 12.1543 3.62805 12.3158L5.25883 11.158ZM5.33738 11.3279C5.35292 11.393 5.3552 11.4597 5.34486 11.5242L3.37011 11.2074C3.33901 11.4012 3.34613 11.6001 3.39211 11.7926L5.33738 11.3279ZM5.34475 11.5248C5.3343 11.5897 5.31115 11.652 5.27651 11.7082L3.57417 10.6584C3.47075 10.8261 3.40152 11.0124 3.37022 11.2067L5.34475 11.5248ZM5.27631 11.7085C5.24148 11.765 5.19609 11.8136 5.14299 11.8519L3.97288 10.2299C3.81358 10.3448 3.678 10.4902 3.57437 10.6581L5.27631 11.7085ZM5.14265 11.8521C5.08926 11.8906 5.0287 11.9183 4.96436 11.9334L4.50568 9.98674C4.31383 10.0319 4.13291 10.1145 3.97322 10.2296L5.14265 11.8521ZM4.95779 11.935C7.81975 11.281 10.1543 11.5874 11.9831 12.7069L13.0273 11.0011C10.6422 9.54108 7.74132 9.24733 4.51225 9.98522L4.95779 11.935ZM11.9835 12.7071C11.8702 12.6378 11.7889 12.5264 11.7576 12.3972L13.7011 11.9252C13.6075 11.54 13.365 11.2076 13.0269 11.0008L11.9835 12.7071ZM11.7576 12.3975C11.7262 12.2684 11.7473 12.132 11.8163 12.0184L13.5261 13.0559C13.7318 12.7169 13.7947 12.3102 13.701 11.925L11.7576 12.3975ZM12.8096 9.81497C12.8602 9.73706 12.9388 9.68177 13.0288 9.66027L13.4934 11.6056C13.9018 11.508 14.2575 11.2573 14.4865 10.9049L12.8096 9.81497ZM13.0288 9.66027C13.119 9.63872 13.214 9.65269 13.2941 9.69912L12.2909 11.4293C12.6543 11.64 13.0847 11.7032 13.4934 11.6056L13.0288 9.66027ZM13.2797 9.69092C10.6207 8.20764 7.48159 7.84044 4.55201 8.66988L5.09684 10.5942C7.51652 9.90917 10.1092 10.2125 12.3054 11.4375L13.2797 9.69092ZM4.33718 8.75879C4.38451 8.73238 4.43706 8.71697 4.49098 8.71359L4.61614 10.7097C4.86022 10.6944 5.09791 10.6246 5.31167 10.5053L4.33718 8.75879ZM4.49101 8.71359C4.5448 8.71022 4.59872 8.71893 4.64876 8.73911L3.9009 10.594C4.1277 10.6855 4.37206 10.725 4.61611 10.7097L4.49101 8.71359ZM4.64876 8.73911C4.6987 8.75924 4.7437 8.79038 4.78028 8.83033L3.30537 10.1811C3.47069 10.3616 3.6742 10.5026 3.9009 10.594L4.64876 8.73911ZM4.78006 8.83008C4.81658 8.86994 4.84364 8.91736 4.85936 8.96891L2.94631 9.55222C3.0176 9.78603 3.14034 10.001 3.3056 10.1814L4.78006 8.83008ZM4.8594 8.96905C4.8751 9.02059 4.8791 9.07507 4.87103 9.12843L2.89349 8.82953C2.85694 9.07134 2.87499 9.3182 2.94627 9.55208L4.8594 8.96905ZM4.87103 9.12843C4.86297 9.18177 4.84306 9.23264 4.81281 9.27726L3.15742 8.1549C3.02022 8.35726 2.93004 8.58775 2.89349 8.82953L4.87103 9.12843ZM4.81281 9.27726C4.78239 9.32213 4.7425 9.3593 4.69633 9.38632L3.68625 7.66012C3.47561 7.78338 3.29479 7.95229 3.15742 8.1549L4.81281 9.27726ZM4.69575 9.38666C4.64962 9.41361 4.59757 9.43021 4.54327 9.43472L4.37769 7.44159C4.1335 7.46187 3.89753 7.53669 3.68683 7.65979L4.69575 9.38666ZM4.73711 9.39913C6.10195 9.00624 7.53153 8.89006 8.94185 9.05749L9.17763 7.07143C7.5026 6.87258 5.80476 7.01057 4.18385 7.47718L4.73711 9.39913ZM8.94188 9.05749C10.3522 9.22488 11.7149 9.67245 12.9498 10.3739L13.9377 8.6349C12.471 7.80178 10.8526 7.27022 9.1776 7.07143L8.94188 9.05749ZM12.8988 10.3429C12.8209 10.2922 12.7656 10.2137 12.7441 10.1237L14.6894 9.65903C14.5918 9.25063 14.3411 8.89499 13.9887 8.66593L12.8988 10.3429ZM12.7441 10.1236C12.7226 10.0336 12.7364 9.93859 12.783 9.85832L14.5132 10.8615C14.7239 10.4981 14.7869 10.0676 14.6894 9.6591L12.7441 10.1236ZM14.2456 7.23589C12.7892 6.36205 10.9147 5.91904 9.13107 5.7788C7.3429 5.6382 5.52945 5.79284 4.15127 6.21058L4.73143 8.12459C5.81775 7.79531 7.37222 7.64668 8.97431 7.77265C10.5809 7.89897 12.1191 8.29236 13.2165 8.95087L14.2456 7.23589ZM4.15073 6.21075C4.21499 6.19123 4.28431 6.19807 4.34347 6.22968L3.40076 7.99357C3.80953 8.21203 4.28841 8.25915 4.73198 8.12442L4.15073 6.21075ZM4.34328 6.22958C4.40247 6.2612 4.44662 6.31502 4.46608 6.37912L2.5523 6.96003C2.6869 7.40346 2.99215 7.7753 3.40095 7.99367L4.34328 6.22958ZM4.46606 6.37906C4.48554 6.4432 4.47874 6.51244 4.44714 6.57158L2.68313 5.62911C2.46472 6.03791 2.41771 6.51671 2.55232 6.96009L4.46606 6.37906ZM4.44719 6.57149C4.41555 6.63073 4.36172 6.67488 4.29758 6.69435L3.71677 4.78054C3.27332 4.91512 2.90144 5.22039 2.68308 5.6292L4.44719 6.57149ZM4.2967 6.69462C5.56741 6.31025 7.31846 6.14193 9.11864 6.28803C10.9214 6.43433 12.6753 6.88799 13.9882 7.6644L15.0063 5.94291C13.3502 4.96356 11.2734 4.45633 9.28043 4.29458C7.28492 4.13263 5.27539 4.30909 3.71765 4.78028L4.2967 6.69462ZM13.9152 7.61678C13.8636 7.57984 13.8277 7.52482 13.8148 7.46267L15.7731 7.05607C15.6838 6.62632 15.4361 6.24596 15.0793 5.99053L13.9152 7.61678ZM13.8148 7.46248C13.8019 7.40024 13.8129 7.33548 13.8455 7.28107L15.5606 8.30993C15.7864 7.93356 15.8622 7.486 15.7731 7.05625L13.8148 7.46248ZM13.8456 7.28096C13.8783 7.22644 13.9303 7.18625 13.9913 7.16835L14.5542 9.0875C14.9754 8.96398 15.3346 8.68643 15.5605 8.31004L13.8456 7.28096ZM13.9912 7.1684C14.0522 7.15049 14.1177 7.15621 14.1748 7.18445L13.2873 8.97676C13.6807 9.17157 14.1331 9.2111 14.5544 9.08746L13.9912 7.1684ZM12.731 8.08061V8.09338H14.731V8.08061H12.731Z" fill="black" mask="url(#path-1-outside-1_301_395)"/>
</svg>
