<svg width="275" height="275" viewBox="0 0 275 275" fill="none" xmlns="http://www.w3.org/2000/svg">
<path d="M56.8516 209.033C50.4038 200.295 43.9872 212.047 46.928 218.841C48.1017 221.552 48.215 224.819 51.3326 225.733C52.2975 226.016 53.1586 227.177 54.2248 227.177C56.0228 227.177 56.6913 226.742 58.2844 226.196" stroke="#4D4D4D" stroke-width="3" stroke-linecap="round" stroke-linejoin="round"/>
<path d="M59.2395 227.667C60.55 234.563 61.0589 242.112 64.387 248.263C66.9056 252.918 72.0638 257.418 77.362 258.098C80.8065 258.54 83.6386 259.507 87.2059 258.67C89.9449 258.027 92.453 256.889 95.1129 256.109C97.3148 255.463 99.2219 253.887 100.791 252.186C102.796 250.013 103.612 247.175 105.196 244.939C106.268 243.426 106.522 240.035 106.522 238.183C106.522 235.706 107 233.471 107 230.991C107 225.639 105.09 220.46 105.09 215.163C105.09 213.613 104.222 212.132 104.134 210.504C104.019 208.374 103.53 205.554 103.153 203.421C102.804 201.453 102.224 199.409 102.224 197.373C102.224 194.018 100.953 197.375 99.3583 196.283" stroke="#4D4D4D" stroke-width="3" stroke-linecap="round" stroke-linejoin="round"/>
<path d="M52.5529 202.168C51.3841 197.818 52.2183 193.245 50.4037 189.146C49.3021 186.658 50.5798 182.879 51.0139 180.428C51.3268 178.661 51.1201 176.746 51.1201 174.952C51.1201 173.399 52.3023 172.524 52.5264 171.029C52.7425 169.587 51.9358 168.124 50.6425 167.46C49.3975 166.821 49.9682 167.23 50.8547 166.371C51.3523 165.888 53.2396 165.038 53.004 164.191C52.8426 163.611 52.1012 163.87 54.0388 163.428C55.6468 163.061 57.6727 161.467 59.2394 161.467C60.9004 161.467 61.9203 161.115 63.6439 160.486C65.515 159.803 66.3823 161.617 67.624 161.385C69.0925 161.111 70.1834 159.069 71.8694 159.069C72.0513 159.069 72.8078 159.963 73.6736 159.996C74.995 160.046 76.5381 160.938 77.866 160.377C78.7503 160.003 78.0037 161.689 79.06 161.93C81.4136 162.467 83.7021 160.061 85.7464 159.287C87.7116 158.544 86.8776 159.35 86.3567 160.486C86.0289 161.201 90.3085 161.204 91.1328 161.358C93.3487 161.772 92.2865 161.634 91.0266 162.693C89.3426 164.107 91.7938 164.409 92.937 164.409C95.2355 164.409 94.6476 164.242 94.5821 165.989C94.5126 167.846 94.9044 167.682 96.0149 168.822C96.7604 169.588 96.8282 170.807 97.6866 171.492C98.5084 172.149 100.314 170.782 99.7827 172.555C99.2609 174.296 98.0385 175.763 97.5539 177.54C97.2388 178.696 99.7403 178.532 100.313 179.12C101.835 180.682 100.197 181.251 99.8623 182.798C99.6042 183.991 100.512 184.369 100.764 185.277C101.06 186.339 99.3632 186.825 99.9419 187.947C100.572 189.169 100.794 188.923 99.8358 190.399" stroke="#4D4D4D" stroke-width="3" stroke-linecap="round" stroke-linejoin="round"/>
<path d="M47.7771 167.351C46.7133 167.991 43.008 169.916 45.8666 171.383C47.0619 171.997 45.5971 171.174 45.8932 173.454C46.2431 176.148 47.0518 175.832 45.1502 178.385C43.6191 180.441 45.0756 181.337 44.0624 183.534C43.4867 184.781 43.0528 186.456 43.001 187.838C42.9203 189.992 47.6822 190.897 46.53 192.606C46.0302 193.347 44.5773 194.388 44.6461 195.412C44.7563 197.052 47.4034 198.698 48.4404 199.716C48.9499 200.216 50.42 201.542 49.5813 202.168C48.6296 202.879 49.583 202.808 50.059 203.639C50.452 204.325 51.3856 205.601 51.3856 205.601C51.3856 205.601 50.9319 202.082 50.3508 200.424C49.8331 198.948 48.97 197.907 47.9893 196.774C47.6032 196.328 48.7246 195.825 48.9976 195.493C50.9253 193.154 51.545 186.912 48.2547 185.223C47.6611 184.918 48.4473 186.711 48.9711 187.13C49.9521 187.913 50.1019 183.707 50.059 183.316C49.7984 180.942 48.9733 179.368 47.3525 177.704C46.2449 176.566 46.6131 176.794 47.8036 176.641C49.3177 176.447 51.1085 174.834 49.4487 173.508C48.2856 172.579 49.9526 176.941 50.6427 177.649" stroke="#4D4D4D" stroke-width="3" stroke-linecap="round" stroke-linejoin="round"/>
<path d="M55.8963 205.11C56.5829 206.012 57.6967 206.748 58.2844 207.671C58.8237 208.518 58.8 209.602 59.2396 210.504C60.3496 212.784 61.15 208.977 61.15 207.943C61.15 207.053 60.2591 203.403 59.3457 205.982C59.1412 206.559 59.708 204.934 59.7172 204.511C59.7506 202.966 59.7121 201.416 59.2396 199.934C58.4886 197.578 56.6468 194.82 54.9411 193.069C54.5133 192.629 55.7841 194.075 56.3739 194.213C57.6952 194.523 58.2618 193.59 58.2844 192.36C58.3002 191.5 56.4126 184.456 54.5697 186.585C54.4824 186.686 57.8068 188.124 57.8068 185.25C57.8068 184.058 55.63 182.507 57.8068 183.997C59.9207 185.444 62.4885 184.041 63.7238 182.09C65.3058 179.591 62.2335 179.198 64.7586 181.79C67.0406 184.133 70.5214 182.631 72.3206 180.373C72.7824 179.794 74.5718 182.104 76.4334 181.763C77.4327 181.58 80.9571 178.919 81.687 179.856C83.9252 182.728 88.7194 182.181 91.7167 182.063C92.8693 182.017 97.9064 178.481 96.0152 177.268C94.8343 176.51 94.5673 180.033 96.4928 178.521C99.1346 176.447 97.5741 173.699 95.5376 172.146C93.4796 170.576 95.8101 171.735 95.4314 169.694C94.9446 167.07 91.8559 163.4 88.9572 165.226C85.1346 167.635 90.5492 170.111 90.5492 167.133C90.5492 163.177 83.2999 161.557 80.5726 163.047C77.8499 164.534 81.7834 164.727 80.3869 164.137C78.6062 163.384 76.5135 163.081 74.6025 162.965C73.8338 162.919 72.3336 163.249 71.6838 162.693C70.7006 161.852 68.3315 161.126 67.0935 160.731C62.8253 159.371 63.3364 163.235 64.9443 166.262C66.4844 169.161 59.9987 167.343 58.7885 167.161C55.5451 166.671 53.6202 171.22 57.0373 171.22C58.3062 171.22 57.3297 170.682 56.772 170.539C54.9804 170.079 53.3986 170.805 52.102 172.092C49.1433 175.028 50.3478 181.451 55.3126 179.829C57.0179 179.272 54.9788 178.249 54.1451 178.249C51.5935 178.249 48.4683 179.859 47.6179 182.444C46.0438 187.228 57.8875 181.128 59.2396 179.992C60.1397 179.236 61.104 178.455 59.9825 177.54C59.1007 176.821 56.4154 175.143 57.5414 175.143C58.1756 175.143 60.7879 177.581 61.6276 177.922C63.0051 178.481 65.4157 179.172 66.669 177.922C69.5877 175.01 63.8814 173.659 64.1218 174.326C65.925 179.325 74.7895 176.355 77.5478 174.326C78.6171 173.539 78.7235 172.231 77.1763 173.072C75.4956 173.986 74.115 176.16 74.8413 178.14C76.5578 182.817 87.0197 180.462 87.7897 176.015C88.0273 174.642 85.5535 174.022 84.6588 174.543C82.3666 175.881 84.3606 178.436 86.1447 178.766C90.8103 179.628 98.9142 174.072 91.6902 170.893C90.1249 170.204 87.2088 169.826 86.0916 171.547C84.7239 173.653 88.8264 173.556 89.7798 173.372C98.0994 171.77 88.3203 167.061 85.7997 165.635C83.7744 164.489 78.6466 161.106 80.4399 166.262C80.6686 166.919 79.2716 164.926 79.0337 164.682C77.6469 163.258 75.6803 162.199 73.78 161.794C71.5336 161.315 68.7161 161.321 67.0139 163.156C65.8947 164.363 67.2468 164.773 68.3141 164.872C68.6755 164.906 70.8537 164.983 69.8796 164.137C68.444 162.889 66.2806 162.898 64.5198 162.693C63.2294 162.542 60.3081 162.118 59.8498 164C59.3744 165.953 61.175 169.111 62.6889 170.185C64.3131 171.336 62.9295 170.297 61.9991 169.912C60.5309 169.304 58.1852 168.521 56.5862 168.931C54.6897 169.418 58.9111 171.107 59.1334 171.165C62.3479 172.007 66.1328 171.433 69.2162 170.294C69.9603 170.019 73.0871 168.518 72.0288 167.242C71.6189 166.748 70.2877 165.913 69.853 166.861C68.7604 169.245 76.8869 168.126 77.76 167.569C78.651 167.001 74.231 165.627 74.8413 168.822C75.5011 172.277 81.0581 172.347 83.0137 170.185C84.9877 168.002 81.1947 167.722 82.3769 169.694C83.7206 171.936 84.7729 169.384 81.3686 168.577C76.2829 167.372 73.0198 169.55 68.1549 170.239C64.8313 170.71 65.1143 172.175 63.0604 174.435C61.046 176.651 59.0941 175.688 56.8781 176.968C54.7131 178.218 56.1305 183.817 55.8698 185.958C55.6196 188.014 51.6444 186.439 50.9611 189.445C50.5544 191.235 51.7611 193.131 53.0572 194.24C53.6551 194.752 55.7035 195.097 56.029 195.766C56.4682 196.668 54.0425 195.629 53.0838 195.848C51.8125 196.138 52.0634 197.99 52.3408 198.926C53.1455 201.641 54.9515 203.703 55.4187 206.581" stroke="#4D4D4D" stroke-width="3" stroke-linecap="round" stroke-linejoin="round"/>
<path d="M56.3739 219.821C55.3983 218.444 54.8764 217.667 54.9411 216.007C54.9832 214.926 55.589 215.529 54.7288 214.645C54.0761 213.975 52.5809 213.88 52.0754 214.918" stroke="#4D4D4D" stroke-width="3" stroke-linecap="round" stroke-linejoin="round"/>
<path d="M69.7468 203.149C71.2731 201.143 73.03 200.512 75.372 199.825C76.6363 199.454 79.0107 199.615 78.8213 199.226" stroke="#4D4D4D" stroke-width="3" stroke-linecap="round" stroke-linejoin="round"/>
<path d="M93.1494 198.245C95.0785 197.858 97.2725 197.176 98.8807 198.735C99.4517 199.289 102.436 200.697 100.791 200.697" stroke="#4D4D4D" stroke-width="3" stroke-linecap="round" stroke-linejoin="round"/>
<path d="M77.8662 209.524C77.8662 209.524 77.8663 209.524 77.8663 209.524" stroke="#4D4D4D" stroke-width="3" stroke-linecap="round" stroke-linejoin="round"/>
<path d="M96.4927 209.033C96.4927 209.033 96.4927 209.033 96.4928 209.033" stroke="#4D4D4D" stroke-width="3" stroke-linecap="round" stroke-linejoin="round"/>
<path d="M88.3733 205.601C88.3733 211.653 92.5911 217.447 94.1311 222.982C94.7867 225.337 93.9386 225.706 91.4777 225.706C89.0818 225.706 87.8579 225.519 86.4629 227.667" stroke="#4D4D4D" stroke-width="3" stroke-linecap="round" stroke-linejoin="round"/>
<path d="M164.045 148.776C160.906 146.507 158.959 146.813 156.096 149.464C153.422 151.941 152.56 156.534 154.964 159.485C158.693 164.063 167.123 162.68 169.889 157.876C171.231 155.545 170.821 157.36 171.705 158.075C173.905 159.855 175.037 159.987 177.247 157.892C179.904 155.373 182.063 145.216 175.51 146.556C174.782 146.706 172.443 148.325 173.544 148.1C175.001 147.802 174.97 146.008 174.609 144.877C173.644 141.861 169.425 140.39 166.768 141.511C164.783 142.348 164.279 144.785 162.682 145.707C161.139 146.598 155.02 151.816 159.759 151.251" stroke="#4D4D4D" stroke-width="2.5" stroke-linecap="round" stroke-linejoin="round"/>
<path d="M125.943 162.99C123.52 162.517 120.666 161.811 120.054 165.101C119.599 167.547 122.099 170.621 124.693 170.212C125.597 170.069 128.576 168.679 129.165 169.268C130.644 170.747 131.536 169.041 132.443 167.601C133.502 165.919 131.899 160.508 129.693 160.018C128.291 159.706 122.764 163.65 123.443 163.99" stroke="#4D4D4D" stroke-width="2.5" stroke-linecap="round" stroke-linejoin="round"/>
<path d="M166.045 70.166C168.786 66.6064 173.724 62.8818 178.553 63.1505C180.704 63.2702 181.756 68.1132 182.445 69.6648C184.887 75.1683 172.586 75.8853 175.051 81.4407C175.519 82.4952 176.922 82.8937 177.831 83.473C179.76 84.7024 180.054 84.1227 180.054 82.1924C180.054 80.6983 176.816 76.8127 178.553 75.7894C183.267 73.0126 182.251 65.656 176.302 65.656C171.729 65.656 165.044 66.4967 165.044 72.4209C165.044 75.3733 167.54 74.5044 168.769 72.922C170.252 71.0117 171.307 68.6626 174.05 68.6626C175.976 68.6626 179.75 67.918 180.054 70.6671C180.106 71.1334 181.112 73.3462 180.944 73.5623C180.248 74.4582 179.552 75.8087 179.054 76.9308C178.219 78.812 175.551 78.5636 175.551 80.9396C175.551 82.5265 175.637 82.8007 176.552 83.9462C176.855 84.3252 178.623 85.3374 178.053 84.1968" stroke="#CD4631" stroke-width="3" stroke-linecap="round" stroke-linejoin="round"/>
<path d="M181.557 91.2122C181.661 95.3806 183.699 92.8282 182.168 91.6019C181.155 90.7899 180.871 93.0126 182.057 93.6063C183.389 94.2733 183.081 90.9103 182.668 91.3235C181.595 92.3983 183.873 95.3 181.557 94.7199" stroke="#CD4631" stroke-width="3" stroke-linecap="round" stroke-linejoin="round"/>
<path d="M155.195 26.2355C148.679 17.908 137.317 20.4846 130.307 26.9844C123.481 33.3136 119.286 49.1851 125.58 57.067C127.331 59.2593 128.873 61.6949 130.937 63.6002C131.674 64.28 129.046 64.3051 128.055 64.4522C124.989 64.9075 123.479 68.2226 124.316 71.0761C124.756 72.573 125.984 73.6018 127.466 73.937C128.488 74.1683 128.712 74.5295 127.537 74.6471C124.78 74.923 122.819 75.0708 120.929 77.3831C118.14 80.7966 119.4 83.7445 122.705 85.9653C126.047 88.2102 125.429 89.2 122.319 91.0754C119.854 92.5615 118.929 95.5772 118.076 98.2877C116.6 102.976 114.498 110.043 118.65 113.803C123.849 118.512 131.631 118.694 138.097 117.492C140.246 117.093 142.803 116.91 144.482 115.342C144.935 114.919 146.165 113.401 144.875 113.126C142.574 112.634 141.74 116.759 141.62 118.19C140.771 128.328 155.907 131.789 163.208 130.527C167.951 129.707 172.1 127.417 175.825 124.449C178.757 122.113 182.882 119.522 184.824 116.197C185.762 114.593 185.419 116.464 185.969 117.927C187.284 121.425 191.079 120.755 193.94 119.895C197.806 118.733 201.27 116.248 203.605 112.934C203.947 112.449 205.676 109.238 205.966 109.676C209.514 115.025 211.638 107.499 214.673 105.679C215.181 105.375 216.131 108.833 216.424 109.397C218.64 113.66 220.951 117.489 225.949 118.741C236.648 121.42 247.852 116.884 255.253 109.174C258.37 105.927 260.091 101.438 256.144 97.8407C255.19 96.9704 258.2 97.9782 258.763 97.9372C261.856 97.712 266.336 97.3228 268.589 94.9048C271.156 92.1489 272.539 89.7051 271.523 85.8512C270.813 83.1557 269.254 81.5544 266.698 80.5454C265.573 80.1015 263.309 80.019 264.956 78.978C266.608 77.9333 267.375 75.2996 267.525 73.4445C267.76 70.5165 265.75 68.5222 263.15 67.5301C261.978 67.0827 258.374 67.547 258.977 67.4867C260.983 67.2859 262.086 59.4204 261.937 57.9183C261.271 51.242 254.586 46.0399 247.804 46.4746C246.68 46.5466 245.529 47.2146 246.381 46.0535C247.358 44.7205 247.408 42.3304 247.8 40.7887C250.007 32.1055 246.441 24.7698 239.665 19.2163C234.088 14.6455 225.499 12.1316 218.787 15.2865C218.354 15.4903 215.536 18.7623 216.388 18.6771C217.688 18.547 217.272 15.4255 217.096 14.7386C216.268 11.5198 212.481 8.85163 209.718 7.43423C205.647 5.34589 199.757 6.06588 195.479 7.24559C191.709 8.28522 188.868 10.7445 186.923 14.0442C185.892 15.7927 186.766 17.2537 185.489 16.0831C183.419 14.1849 182.659 12.9412 179.422 13.2068C175.608 13.5197 172.129 14.5187 169.1 16.9037C167.549 18.1249 166.161 20.7754 166.364 22.8125C166.367 22.8437 165.937 20.8829 165.635 20.1192C164.004 16.0047 158.55 16.1445 155.655 19.0432C154.435 20.2643 153.738 22.1222 153.6 23.8337C153.528 24.7289 153.027 27.5779 152.78 25.0941" stroke="#4D4D4D" stroke-width="2.5" stroke-linecap="round" stroke-linejoin="round"/>
<path d="M194.478 41.1041C193.743 36.9002 198.383 36.4356 201.706 35.592C204.343 34.9223 206.856 34.3653 209.378 35.8147C211.019 36.7578 213.327 39.1745 213.465 41.1041C213.977 48.2839 207.694 52.6294 200.788 52.6294C197.896 52.6294 198.006 57.8357 197.981 59.6449C197.94 62.5673 197.253 65.3929 197.591 68.3306C197.685 69.1389 198.164 73.5972 199.482 72.0889C201.665 69.5905 201.984 64.2766 201.984 61.1482C201.984 58.1692 201.152 55.5708 204.235 54.3833C206.963 53.3327 210.279 52.1259 212.102 49.6228C214.724 46.0252 215.237 41.0193 212.464 37.3737C210.12 34.293 203.564 34.1551 199.982 34.0887C195.287 34.0016 193.131 36.7058 190.753 40.603C189.329 42.9357 190.048 46.8624 193.477 46.0038C197.142 45.0862 199.692 42.9537 202.262 40.3803C203.637 39.0034 207.454 39.9456 208.989 40.7144C210.817 41.6294 209.727 44.7884 209.211 46.1151C207.15 51.4232 200.297 51.2463 198.592 56.0258C197.305 59.6364 197.48 63.3582 197.48 67.1335C197.48 68.2995 196.723 72.0641 198.981 71.0588C203.288 69.142 201.27 60.9917 201.483 57.1393C201.606 54.9319 204.52 54.6165 205.987 53.8822C207.761 52.9938 210.218 50.3901 211.102 48.6206C212.301 46.2194 212.52 42.5585 210.74 40.3803C208.522 37.6654 204.754 39.3283 202.484 37.5964C200.513 36.0921 196.369 41.2143 194.978 42.6074C194.431 43.1551 193.82 43.6356 193.227 44.1107C192.958 44.3264 192.173 45.8924 191.976 45.8924C191.359 45.8924 192.702 44.8666 193.199 44.5005C194.876 43.266 196.449 41.8572 197.675 40.1576C199.04 38.2651 201.251 39.0997 203.485 39.0997C204.768 39.0997 207.666 38.5425 208.739 39.3781C210.365 40.6443 210.957 41.7836 208.489 42.6074" stroke="#CD4631" stroke-width="3" stroke-linecap="round" stroke-linejoin="round"/>
<path d="M199.982 80.19C192.685 81.8343 203.228 84.8246 201.872 80.5798C201.412 79.1393 199.353 79.6587 200.009 81.1922C200.298 81.8677 202.93 83.0116 200.482 82.1945" stroke="#CD4631" stroke-width="3" stroke-linecap="round" stroke-linejoin="round"/>
<path d="M230.135 96.0496C233.569 96.0496 238.022 95.2481 241.36 96.2231C243.31 96.7926 244.342 98.0313 245.742 99.3455C247.4 100.902 249.383 102.978 249.137 105.434C248.838 108.431 244.978 109.905 242.572 110.708C239.139 111.854 234.573 111.643 231.001 111.107C228.186 110.684 223.204 109.796 222.098 106.596C221.199 103.997 223.138 102.606 225.354 101.982C228.782 101.017 232.37 100.259 235.886 99.7271C237.59 99.4692 241.461 98.3291 243.161 99.4843C243.874 99.9685 244.591 102.083 244.755 102.902C245.017 104.217 244.319 104.946 243.213 105.556C240.789 106.891 237.837 107.509 235.176 106.51C231.647 105.184 236.141 102.135 238.103 102C240.416 101.84 241.301 102.763 242.122 104.931C242.702 106.463 242.685 107.424 240.754 107.585C238.455 107.777 236.062 107.578 233.877 106.839C230.475 105.689 226.059 103.678 223.726 100.803C222.639 99.4629 222.652 97.6707 222.652 96.0496C222.652 93.3611 222.675 93.5789 225.736 93.5517C231.028 93.5045 236.308 93.2394 241.602 93.2394C243.26 93.2394 244.797 93.0703 246.279 93.9333C247.3 94.5274 247.339 94.782 247.284 95.9455C247.085 100.133 242.446 101.203 239.177 102.294" stroke="#4D4D4D" stroke-width="1.5" stroke-linecap="round"/>
<path d="M137.533 57.6438C137.047 55.1502 135.485 52.8623 134.553 50.4623C133.743 48.3744 133.479 45.6642 133.479 43.4195C133.479 39.1271 134.082 34.4906 137.914 31.7277C140.849 29.6113 146.243 28.5856 149.138 31.4849C151.953 34.3039 151.526 38.7433 152.343 42.344C153.193 46.0918 151.313 51.9226 147.198 53.0816C145.858 53.4592 142.428 54.309 141.43 52.9255C139.983 50.9189 139.505 47.9065 138.849 45.5705C138.145 43.0613 135.657 37.0531 139.698 35.8389C144.717 34.331 146.815 42.6318 147.129 46.0215C147.313 48.0092 147.466 49.7621 146.124 51.3296C145.565 51.9829 143.125 53.7968 142.366 52.6133C141.311 50.9708 140.542 43.0892 142.833 42.9685C143.373 42.94 144.937 42.7335 145.258 43.2807C145.838 44.2668 145.133 45.8271 144.219 46.2297C142.423 47.0211 141.898 46.9071 141.898 44.998C141.898 43.2593 142.65 41.9432 144.635 42.795C145.612 43.2145 145.725 45.1348 145.882 45.9868C146.377 48.672 146.263 51.4224 146.263 54.1398C146.263 58.3361 143.128 60.6368 140.339 63.5764" stroke="#4D4D4D" stroke-width="1.5" stroke-linecap="round"/>
<path d="M139.402 109.788C135.714 109.788 132.474 110.09 129.425 107.845C127.34 106.31 126.619 104.848 126.619 102.225C126.619 100.363 126.829 98.8648 128.178 97.4373C129.431 96.1108 130.573 96.0751 132.335 95.6679C132.985 95.5178 137.583 94.2519 138.085 95.4251C138.82 97.1409 137.845 100.068 136.907 101.531C135.868 103.153 134.951 104.749 133.166 105.66C132.769 105.862 129.79 107.003 129.737 106.041C129.637 104.241 129.896 102.898 130.984 101.427C131.638 100.543 134.106 100.998 135.037 101.045C138.409 101.219 136.904 109.614 133.235 105.798C132.448 104.979 132.323 103.343 132.889 102.398C134.951 98.9562 138.617 97.4681 142.208 96.3618" stroke="#4D4D4D" stroke-width="1.5" stroke-linecap="round"/>
<path d="M250.713 65.4499C252.364 64.4415 253.831 63.1692 253.831 61.0785C253.831 59.7412 254.163 58.413 253.034 57.4877C252.205 56.8082 245.841 54.2721 245.725 56.7071C245.644 58.3991 245.725 60.1131 245.725 61.8071C245.725 63.6502 247.682 63.2869 249.085 63.2642C251.69 63.2221 252.01 61.2688 251.008 58.9275C250.468 57.6678 248.645 56.7818 247.942 58.7193C247.575 59.7304 252.62 58.8928 249.154 58.8928" stroke="#4D4D4D" stroke-width="1.5" stroke-linecap="round"/>
<path d="M260.352 89.2707C261.04 89.2707 262.976 89.0344 263.207 90.0778C263.412 91.0013 263.078 91.5412 262.411 92.0605C260.95 93.1992 257.107 92.6457 257.965 90.1475C258.575 88.3701 260.375 87.1892 262.242 87.1186C262.692 87.1016 263.25 86.9619 263.486 87.3876C263.715 87.8 263.594 88.6155 263.396 89.0117C262.828 90.1511 261.762 91.1294 260.571 91.2833C258.903 91.4988 254.98 92.268 254.98 89.8087" stroke="#4D4D4D" stroke-width="1.5" stroke-linecap="round"/>
</svg>
