<svg width="20" height="20" viewBox="0 0 20 20" fill="none" xmlns="http://www.w3.org/2000/svg">
<path d="M5.28185 12.3705C5.37952 11.5618 5.71119 11.1091 6.3362 10.6449C7.23049 10.0163 8.34758 10.3719 8.34758 10.3719V8.26241C8.61916 8.25546 8.89084 8.27156 9.15946 8.31051V11.0252C9.15946 11.0252 8.04271 10.6696 7.14842 11.2986C6.52374 11.7624 6.19139 12.2155 6.09406 13.0242C6.09101 13.4633 6.17342 14.0373 6.55291 14.5336C6.45908 14.4855 6.36345 14.4307 6.266 14.3692C5.43005 13.8078 5.27778 12.9657 5.28185 12.3705ZM13.772 4.36199C13.1568 3.68786 12.9241 3.00724 12.84 2.52911H13.6139C13.6139 2.52911 13.4596 3.78277 14.5842 5.01563L14.5998 5.03221C14.2967 4.84156 14.0188 4.61652 13.772 4.36199ZM17.5 6.27319V8.93328C17.5 8.93328 16.5125 8.8946 15.7817 8.70868C14.7612 8.44865 14.1053 8.04983 14.1053 8.04983C14.1053 8.04983 13.6523 7.76543 13.6156 7.7456V13.2387C13.6156 13.5445 13.5319 14.3084 13.2765 14.9454C12.9431 15.7788 12.4287 16.3259 12.3341 16.4377C12.3341 16.4377 11.7084 17.1771 10.6045 17.6751C9.60949 18.1243 8.73589 18.1129 8.47476 18.1243C8.47476 18.1243 6.96461 18.1841 5.60572 17.301C5.31186 17.1063 5.03757 16.8859 4.78638 16.6425L4.79316 16.6473C6.15239 17.5305 7.6622 17.4706 7.6622 17.4706C7.92367 17.4593 8.79727 17.4706 9.79194 17.0214C10.8948 16.5235 11.5215 15.784 11.5215 15.784C11.6151 15.6722 12.1319 15.1252 12.4639 14.2915C12.7186 13.6547 12.8031 12.8906 12.8031 12.5847V7.09228C12.8397 7.11243 13.2924 7.39684 13.2924 7.39684C13.2924 7.39684 13.9487 7.79598 14.9691 8.05568C15.7003 8.2416 16.6875 8.28028 16.6875 8.28028V6.19583C17.0252 6.27157 17.3132 6.29204 17.5 6.27319Z" fill="#EE1D52"/>
<path d="M16.6878 6.19583V8.27963C16.6878 8.27963 15.7006 8.24095 14.9694 8.05503C13.949 7.79501 13.2928 7.39619 13.2928 7.39619C13.2928 7.39619 12.84 7.11178 12.8034 7.09163V12.5854C12.8034 12.8912 12.7196 13.6554 12.4643 14.2921C12.1309 15.1258 11.6164 15.6729 11.5218 15.7847C11.5218 15.7847 10.8958 16.5241 9.79226 17.0221C8.79759 17.4713 7.92399 17.4599 7.66252 17.4713C7.66252 17.4713 6.15271 17.5311 4.79348 16.648L4.78669 16.6431C4.64319 16.5042 4.50811 16.3574 4.38211 16.2037C3.94836 15.6748 3.68249 15.0495 3.61568 14.871C3.61556 14.8703 3.61556 14.8695 3.61568 14.8687C3.50817 14.5587 3.28231 13.814 3.31317 13.0928C3.36777 11.8202 3.81542 11.0392 3.93378 10.8435C4.24724 10.3099 4.65493 9.83251 5.13871 9.43253C5.56562 9.08738 6.0495 8.81277 6.57052 8.61994C7.13376 8.39354 7.73688 8.2722 8.34756 8.26241V10.3719C8.34756 10.3719 7.23047 10.0176 6.33652 10.6449C5.7115 11.1091 5.37983 11.5618 5.28216 12.3705C5.27809 12.9657 5.43036 13.8078 6.26564 14.3695C6.36308 14.4312 6.45872 14.4861 6.55254 14.534C6.69847 14.7236 6.87608 14.8889 7.0782 15.0231C7.89414 15.5396 8.57783 15.5757 9.45211 15.2403C10.0351 15.016 10.4739 14.5106 10.6774 13.9505C10.8052 13.6008 10.8035 13.2488 10.8035 12.8847V2.52911H12.8383C12.9224 3.00724 13.1551 3.68786 13.7703 4.36199C14.017 4.61652 14.295 4.84156 14.5981 5.03221C14.6876 5.12484 15.1454 5.58282 15.7331 5.86397C16.037 6.0093 16.3574 6.12065 16.6878 6.19583Z" fill="black"/>
<path d="M2.80591 14.2231V14.2248L2.8564 14.3616C2.8506 14.3457 2.83184 14.2973 2.80591 14.2231Z" fill="#69C9D0"/>
<path d="M6.57051 8.61984C6.0495 8.81266 5.56561 9.08728 5.1387 9.43243C4.65477 9.83331 4.24718 10.3117 3.93411 10.8463C3.81576 11.0414 3.3681 11.8231 3.3135 13.0956C3.28264 13.8168 3.5085 14.5615 3.61601 14.8716C3.61589 14.8723 3.61589 14.8731 3.61601 14.8738C3.68383 15.0507 3.94869 15.676 4.38244 16.2065C4.50844 16.3602 4.64352 16.507 4.78702 16.6459C4.32723 16.3411 3.91716 15.9727 3.57023 15.5525C3.14021 15.0282 2.87501 14.4094 2.80583 14.2267C2.80574 14.2254 2.80574 14.2241 2.80583 14.2228V14.2205C2.69798 13.9108 2.47144 13.1658 2.50298 12.4436C2.55758 11.171 3.00523 10.39 3.12359 10.1943C3.43657 9.65964 3.84417 9.18122 4.32818 8.78041C4.755 8.43514 5.23891 8.16051 5.75999 7.96782C6.08501 7.83857 6.42361 7.74322 6.76992 7.68341C7.29183 7.5961 7.82487 7.58853 8.34925 7.66099V8.2623C7.738 8.27189 7.13427 8.39324 6.57051 8.61984Z" fill="#69C9D0"/>
<path d="M12.8399 2.52897H10.8051V12.8849C10.8051 13.2489 10.8051 13.6 10.6789 13.9507C10.4734 14.5104 10.0363 15.0158 9.45365 15.2401C8.57904 15.5768 7.89535 15.5395 7.07974 15.023C6.87727 14.8894 6.69921 14.7246 6.55273 14.5354C7.24761 14.8907 7.86958 14.8845 8.64008 14.5881C9.22237 14.3638 9.66018 13.8584 9.86502 13.2984C9.99321 12.9486 9.99151 12.5966 9.99151 12.2329V1.875H12.8012C12.8012 1.875 12.7697 2.13243 12.8399 2.52897ZM16.6876 5.6194V6.19569C16.3578 6.12039 16.038 6.00904 15.7347 5.86383C15.147 5.58267 14.6891 5.1247 14.5996 5.03206C14.7035 5.09744 14.8113 5.15691 14.9225 5.21018C15.637 5.55212 16.3407 5.65418 16.6876 5.6194Z" fill="#69C9D0"/>
</svg>
